<svg id="Layer_1" data-name="Layer 1" xmlns="http://www.w3.org/2000/svg" xmlns:xlink="http://www.w3.org/1999/xlink" viewBox="0 0 337.33 337.33"><defs><style>.cls-1{fill:none;}.cls-2{clip-path:url(#clip-path);}.cls-3{fill:#711518;}.cls-4,.cls-5{fill:#fff;}.cls-5{font-size:9.69px;font-family:MarketDeco, Market Deco;}</style><clipPath id="clip-path" transform="translate(0)"><rect class="cls-1" x="-90.2" y="-84.3" width="500" height="500"/></clipPath></defs><title>logo</title><g class="cls-2"><path class="cls-3" d="M337.33,168.67c0,6.15-12.46,11.55-13.12,17.53s10.27,14.12,8.93,20-14.71,8.46-16.7,14.17,6.86,16,4.22,21.5-16.22,4.94-19.45,10.07,3.12,17.15-.67,21.89-16.9,1.21-21.2,5.51-.75,17.4-5.5,21.2-16.74-2.58-21.9.67-4.57,16.8-10.07,19.45-15.72-6.25-21.5-4.23-8.19,15.35-14.17,16.7-13.9-9.61-20-8.93-11.38,13.13-17.54,13.13-11.56-12.46-17.53-13.12-14.12,10.27-20,8.93-8.47-14.71-14.17-16.7-16,6.86-21.49,4.22-4.94-16.22-10.07-19.45-17.15,3.12-21.89-.67-1.2-16.91-5.5-21.21-17.41-.74-21.2-5.5,2.58-16.74-.67-21.89-16.8-4.58-19.45-10.07,6.25-15.72,4.23-21.49-15.35-8.2-16.7-14.17,9.61-13.9,8.93-20S0,174.82,0,168.67s12.46-11.56,13.13-17.54S2.86,137,4.2,131.13,18.9,122.66,20.9,117s-6.85-16-4.23-21.49,16.22-4.94,19.45-10.07S33,68.25,36.79,63.5,53.7,62.29,58,58s.75-17.4,5.5-21.2,16.74,2.57,21.89-.67S90,19.32,95.47,16.67s15.72,6.24,21.49,4.22,8.2-15.34,14.17-16.7,13.9,9.62,20,8.94S162.51,0,168.67,0s11.56,12.46,17.54,13.13,14.12-10.27,20-8.94,8.47,14.71,14.17,16.71,16-6.86,21.49-4.23,4.94,16.22,10.07,19.45,17.15-3.12,21.9.67S275,53.7,279.34,58s17.4.74,21.2,5.5-2.57,16.74.67,21.89S318,90,320.66,95.47s-6.25,15.72-4.22,21.49,15.34,8.2,16.7,14.17-9.62,13.9-8.93,20,13.12,11.38,13.12,17.54" transform="translate(0)"/><path class="cls-4" d="M58.27,116.75a121.74,121.74,0,0,1,220.46,0h1.67a123.24,123.24,0,0,0-223.8,0Z" transform="translate(0)"/><path class="cls-4" d="M283.76,207.7a121.75,121.75,0,0,1-230.52,0h-1.6a123.27,123.27,0,0,0,233.73,0Z" transform="translate(0)"/><path class="cls-4" d="M48.31,116.75a130.82,130.82,0,0,1,240.37,0H292a133.89,133.89,0,0,0-247,0Z" transform="translate(0)"/><path class="cls-4" d="M293.34,207.7a130.86,130.86,0,0,1-249.68,0H40.47a133.91,133.91,0,0,0,256.05,0Z" transform="translate(0)"/><path class="cls-4" d="M142.43,245.79s.6.42,1.55,1.06a37.48,37.48,0,0,0,3.77,2.25,11.1,11.1,0,0,0,2.94,1.4,12.31,12.31,0,0,0,3.56.55,13,13,0,0,0,2.92-.31,10.14,10.14,0,0,1,1.19-.29,2.87,2.87,0,0,1-1.15.47,12.78,12.78,0,0,1-3,.44,16.3,16.3,0,0,1-3.72-.32,33.52,33.52,0,0,1-3.31-.89,12.62,12.62,0,0,1-3.62-2.87,12.77,12.77,0,0,1-1.15-1.51" transform="translate(0)"/><path class="cls-4" d="M206.15,255.26a4.88,4.88,0,0,0-.83-1.69,9.62,9.62,0,0,0-1.37-1.5,12.87,12.87,0,0,0-3.71-2.25,20.15,20.15,0,0,0-7.65-1.11,26.22,26.22,0,0,0-3.76.35h0c-1,.09-2.08.21-3.18.39a105.34,105.34,0,0,0-11.11,2.39l-3.16.85c-1.09.27-2.21.64-3.3,1-2.2.74-4.47,1.52-6.8,2.26a85.17,85.17,0,0,1-13.36,3.25,35.7,35.7,0,0,1-11.15.08,19.27,19.27,0,0,1-7.05-2.59,16.66,16.66,0,0,1-2.24-1.66,15.1,15.1,0,0,0,2.13,1.83,17.47,17.47,0,0,0,2.87,1.66,20.89,20.89,0,0,0,4.17,1.39,34.37,34.37,0,0,0,11.41.36c4.28-.49,5-.3,9.72-1.79,2.36-.74,8.53-2.85,10.71-3.62,1.1-.38,2.15-.75,3.22-1l3.14-.93c4.08-1.22,7.78-2.17,10.93-2.81,3.87-.8,9.53-1.44,14.14,0a9.1,9.1,0,0,1,3.41,2.19,8.16,8.16,0,0,1,1.2,1.43,4,4,0,0,1,.63,1.52,3.47,3.47,0,0,1-.81,2.82,5.51,5.51,0,0,1-2.54,1.65c-.21.09-.42.16-.64.23a6.31,6.31,0,0,1-.62.15,5.78,5.78,0,0,1-1.28.08,5.41,5.41,0,0,1-2.32-.63,4,4,0,0,1-.84-.61,3.48,3.48,0,0,1-.31-.35,1.57,1.57,0,0,1-.2-.34,1.31,1.31,0,0,1,.18-1.33,2.41,2.41,0,0,1,1.22-.79,2.47,2.47,0,0,1,1.31,0,2.14,2.14,0,0,1,.75.38,1.3,1.3,0,0,1,.21.19,1,1,0,0,0-.13-.23,1.83,1.83,0,0,0-.68-.54,3,3,0,0,0-1.65-.27,3.72,3.72,0,0,0-1,.26,3.21,3.21,0,0,0-.91.55,2,2,0,0,0-.7,1.92,2.24,2.24,0,0,0,.21.57,3.16,3.16,0,0,0,.35.52,4.55,4.55,0,0,0,1.06,1,7.15,7.15,0,0,0,3.34,1.12,7.82,7.82,0,0,0,2.91-.29c.29-.09.57-.19.85-.3a7,7,0,0,0,2.69-2.39,4.26,4.26,0,0,0,.56-3.37" transform="translate(0)"/><path class="cls-4" d="M128.93,246.93a.58.58,0,0,0,.24.06.6.6,0,0,0,.56-.31,1.19,1.19,0,0,0-.43-1.5,1.91,1.91,0,0,0-.69-.24,1.73,1.73,0,0,0-2,1.21,3.59,3.59,0,0,0-.19,1,3.78,3.78,0,0,0,.59,2.09,6.63,6.63,0,0,0,1.67,1.81l0,0a13,13,0,0,0,1.93,1.14,23.22,23.22,0,0,0,2.21,1,28.11,28.11,0,0,0,9.1,2,45.35,45.35,0,0,0,10.38-.6,68.26,68.26,0,0,0,8.22-1.94c2.07-.62,3.32-1,3.34-1a21.47,21.47,0,0,1-3.3,1.23,66.88,66.88,0,0,1-8.28,2.1,51.76,51.76,0,0,1-10.5.91,38.41,38.41,0,0,1-9.48-1.36,20,20,0,0,1-2.36-1c-.75-.4,23,1.63,22.36,1.08l-24.5-2.45a7.3,7.3,0,0,1-1.09-1.09,6.92,6.92,0,0,1-.82-1.24,4.69,4.69,0,0,1-.53-2.76,4.27,4.27,0,0,1,.36-1.25,2.53,2.53,0,0,1,.78-1,2.44,2.44,0,0,1,2.13-.4,2.26,2.26,0,0,1,.84.43,1.51,1.51,0,0,1,.47.7,1.42,1.42,0,0,1-.17,1.24.7.7,0,0,1-.71.28.65.65,0,0,1-.24-.1" transform="translate(0)"/><path class="cls-4" d="M136,246.71s.36.35.92.9,1.3,1.27,2.14,2a6.82,6.82,0,0,0,1.61,1.45,8,8,0,0,0,2.2,1,14.64,14.64,0,0,0,2.77.36,5.37,5.37,0,0,1-2.87-.06,11.89,11.89,0,0,1-2.41-.8c-.78-.34-1.5-.75-2.11-1.05a7.38,7.38,0,0,1-1.84-2.57,7.29,7.29,0,0,1-.42-1.23" transform="translate(0)"/><path class="cls-4" d="M167.11,265.85a.73.73,0,0,1,.22-.12.6.6,0,0,1,.62.13,1.12,1.12,0,0,1,0,1.49,1.94,1.94,0,0,1-.59.41,1.84,1.84,0,0,1-1.57,0,1.69,1.69,0,0,1-.64-.56,3.14,3.14,0,0,1-.46-.86,3.47,3.47,0,0,1,0-2.07,6.44,6.44,0,0,1,1.09-2.15l0,0a13.19,13.19,0,0,1,1.54-1.6,23.76,23.76,0,0,1,1.85-1.51,29.05,29.05,0,0,1,8.15-4.51A47,47,0,0,1,187.43,252a71.07,71.07,0,0,1,8.4-.62c2.15,0,3.47,0,3.47-.07a21.51,21.51,0,0,0-3.5-.16,69.85,69.85,0,0,0-8.51.48,54.72,54.72,0,0,0-10.3,2.22,40.1,40.1,0,0,0-8.7,4,19.68,19.68,0,0,0-2,1.64,13.28,13.28,0,0,0-1.66,1.87h0a7.48,7.48,0,0,0-.74,1.31,6.65,6.65,0,0,0-.43,1.37,4.32,4.32,0,0,0,.26,2.68,4,4,0,0,0,.69,1,2.42,2.42,0,0,0,1,.7,2.52,2.52,0,0,0,2.15-.25,2.32,2.32,0,0,0,.68-.63,1.45,1.45,0,0,0,.25-.77,1.31,1.31,0,0,0-.5-1.09.72.72,0,0,0-.75,0,.76.76,0,0,0-.2.16" transform="translate(0)"/><path class="cls-4" d="M173.36,264.31s.27-.57.73-1.45a32,32,0,0,1,1.91-3.25,9.36,9.36,0,0,1,1.64-2.24,9.86,9.86,0,0,1,2.45-1.81,10.36,10.36,0,0,1,2.32-.87,8.77,8.77,0,0,0,1-.23,2.33,2.33,0,0,0-1.06.05,10.28,10.28,0,0,0-2.42.79,12.71,12.71,0,0,0-2.66,1.68,26,26,0,0,0-2.12,2,10.77,10.77,0,0,0-1.55,3.68,11.6,11.6,0,0,0-.25,1.66" transform="translate(0)"/><path class="cls-4" d="M180.39,261.52l.59-1c.35-.59.84-1.37,1.39-2.2a6.14,6.14,0,0,1,1.07-1.6,7.57,7.57,0,0,1,1.69-1.36,14.17,14.17,0,0,1,2.33-1,5.13,5.13,0,0,0-2.48.75,11.35,11.35,0,0,0-1.91,1.25c-.6.47-1.13,1-1.59,1.39a6.4,6.4,0,0,0-1,2.58,6.15,6.15,0,0,0-.08,1.13" transform="translate(0)"/></g><path class="cls-4" d="M135.47,74h3.69V75h-2.47v1.89h2.47V78h-2.47v1.89h2.47v1.06h-3.69Z" transform="translate(0)"/><path class="cls-4" d="M144.44,81a3.36,3.36,0,0,1-.92-.11,3.25,3.25,0,0,1-.85-.41v-1.3a3.09,3.09,0,0,0,.43.35l.37.2a2.84,2.84,0,0,0,.48.18,2,2,0,0,0,.52.07,1.23,1.23,0,0,0,.88-.32,1,1,0,0,0,.34-.77.71.71,0,0,0-.29-.59,4.84,4.84,0,0,0-1-.52l-.68-.33a2.94,2.94,0,0,1-.53-.36,1.73,1.73,0,0,1-.41-.52,1.51,1.51,0,0,1-.16-.71,1.62,1.62,0,0,1,.22-.74,2,2,0,0,1,.54-.6,2.62,2.62,0,0,1,.78-.4,2.94,2.94,0,0,1,.92-.14,2.89,2.89,0,0,1,.66.09,3.15,3.15,0,0,1,.68.28v1.09l-.31-.16-.24-.1a2,2,0,0,0-.36-.13,1.73,1.73,0,0,0-.43-.05,1.37,1.37,0,0,0-.86.28.8.8,0,0,0-.35.64.68.68,0,0,0,.29.55,4.59,4.59,0,0,0,.92.46l.71.32a2.93,2.93,0,0,1,.54.35,1.63,1.63,0,0,1,.43.55,1.87,1.87,0,0,1,.17.79,1.67,1.67,0,0,1-.2.79,2.16,2.16,0,0,1-.56.66,2.75,2.75,0,0,1-.82.45A2.88,2.88,0,0,1,144.44,81Z" transform="translate(0)"/><path class="cls-4" d="M150.21,73.95h5.2V75h-2v5.9h-1.21V75h-2Z" transform="translate(0)"/><path class="cls-4" d="M158.93,79.88h1v1.06h-1Z" transform="translate(0)"/><text class="cls-5" transform="translate(168.85 80.95) scale(1.14 1)"> </text><path class="cls-4" d="M174.38,74.73a4.4,4.4,0,0,1,.83-.51,3,3,0,0,1,1.42-.31,2.05,2.05,0,0,1,1.14.36,1.59,1.59,0,0,1,.6.92,2.71,2.71,0,0,1,0,1.1q-.17,1.57-2.66,3.63h2.85v1h-4.41v-1q2.79-2.41,3-3.63a1.19,1.19,0,0,0,0-.55.91.91,0,0,0-.34-.52.93.93,0,0,0-.64-.15,2.36,2.36,0,0,0-.8.22,2.55,2.55,0,0,0-.71.5l-.33-1Z" transform="translate(0)"/><path class="cls-4" d="M184.56,73.95a2,2,0,0,1,.91.23,2.4,2.4,0,0,1,.78.65,3.24,3.24,0,0,1,.58,1.14,5.27,5.27,0,0,1,.2,1.49,5.12,5.12,0,0,1-.2,1.47,3.32,3.32,0,0,1-.58,1.14,2.33,2.33,0,0,1-.77.65,1.91,1.91,0,0,1-1.82,0,2.33,2.33,0,0,1-.77-.65,3.32,3.32,0,0,1-.58-1.14,5.09,5.09,0,0,1-.2-1.47,5.23,5.23,0,0,1,.2-1.49,3.24,3.24,0,0,1,.58-1.14,2.45,2.45,0,0,1,.78-.65A1.94,1.94,0,0,1,184.56,73.95Zm0,1.06a1,1,0,0,0-.81.52,3.24,3.24,0,0,0-.31.85,4.64,4.64,0,0,0-.12,1.06,4.71,4.71,0,0,0,.12,1,3.15,3.15,0,0,0,.32.86.89.89,0,0,0,1.63,0,3.27,3.27,0,0,0,.31-.86,4.72,4.72,0,0,0,0-2.11,3.28,3.28,0,0,0-.31-.85A1,1,0,0,0,184.55,75Z" transform="translate(0)"/><path class="cls-4" d="M190,74h2.08v7h-1.22V75H190Z" transform="translate(0)"/><path class="cls-4" d="M198.51,74h1v4.69h.69v1.06h-.69v1.21h-1.21V79.74h-2.75v-1Zm-1.73,4.69h1.56V76.15Z" transform="translate(0)"/><g class="cls-2"><path class="cls-4" d="M95.22,172.71a16,16,0,0,1-3,5.3,33.41,33.41,0,0,1-5.09,5.09,35.54,35.54,0,0,1-6.08,4,17.36,17.36,0,0,1-5.89,2,5.28,5.28,0,0,1-4.1-.94,4.72,4.72,0,0,1-1.72-3.41,11.15,11.15,0,0,1,.38-3.59q6.44-21.81,13.47-44.51a6.15,6.15,0,0,0,.23-2q-.07-1-1.17-.74a6.46,6.46,0,0,0-2.64,1.42,24,24,0,0,0-2.89,2.79,31.3,31.3,0,0,0-2.67,3.5A18.62,18.62,0,0,0,72.24,145q-7,23.47-13.5,45.82c-4.62.6-6.93.91-11.55,1.54q7.14-24.84,15.09-51.28a5.73,5.73,0,0,0,.19-1.9q-.09-.91-1.18-.65A6.85,6.85,0,0,0,58.68,140a23.4,23.4,0,0,0-2.84,2.84,35.4,35.4,0,0,0-2.61,3.49,16.8,16.8,0,0,0-1.78,3.42q-6.59,22.56-12.74,43.77c-4.81.67-7.21,1-12,1.7q6.69-23.44,14.14-48.74a4.13,4.13,0,0,0,.2-1.45c-.12-1-1.17-1.22-3.15-.66l-.73.2q-2.24.63-2.48-1.24a3.06,3.06,0,0,1,1-2.65c.8-.79,2.56-1.6,5.28-2.4a29.27,29.27,0,0,1,8.7-1.46c2.21.07,3.48,1,3.81,2.73A21,21,0,0,1,58,134.91a18.25,18.25,0,0,1,6.75-3c2.93-.73,5.13-.74,6.61-.05A4.65,4.65,0,0,1,74,135.55,22.91,22.91,0,0,1,79,130a16.52,16.52,0,0,1,6.83-2.92c3-.62,5.31-.48,6.8.39A5.17,5.17,0,0,1,95.05,132a20.08,20.08,0,0,1-1.18,7q-6.31,20.06-12.17,39.58a1.29,1.29,0,0,0-.09.65c0,.48.38.68,1,.6a6.77,6.77,0,0,0,2.71-1.18,18.6,18.6,0,0,0,3.08-2.56,24.73,24.73,0,0,0,2.69-3.26,12.79,12.79,0,0,0,1.68-3.19c1,1.22,1.45,1.84,2.41,3.08" transform="translate(0)"/><path class="cls-4" d="M125.22,169.74a17.88,17.88,0,0,1-2.19,4.14,24,24,0,0,1-3.58,4.06,34.43,34.43,0,0,1-7.77,5.8,23.58,23.58,0,0,1-9.07,2.5q-2.79.24-4.94.24a10.16,10.16,0,0,1-3.66-.59A5,5,0,0,1,91.65,184a7.06,7.06,0,0,1-1-3.52c-.15-2.21.36-5.31,1.57-9.33.87-2.82,1.3-4.24,2.18-7.07a33.21,33.21,0,0,1,2.43-6,15.51,15.51,0,0,1,3.32-4.28,14.63,14.63,0,0,1,4.63-2.75,26.77,26.77,0,0,1,6.34-1.43,22.7,22.7,0,0,1,4.67-.14,7.6,7.6,0,0,1,2.89.76,3.29,3.29,0,0,1,1.47,1.55,6,6,0,0,1,.49,2.24,25.25,25.25,0,0,1-.35,4.85,15.65,15.65,0,0,1-2,5.41,9.61,9.61,0,0,1-3,3.17,20.31,20.31,0,0,1-4.21,2.19,37.25,37.25,0,0,1-4.66,1.45q-2.35.57-4.33.86-.73,2.23-1.09,3.8a9.28,9.28,0,0,0-.31,2.55q.13,2.22,2.73,2a21.25,21.25,0,0,0,5.85-1.44,27.06,27.06,0,0,0,5.61-3,27.55,27.55,0,0,0,4.74-4.21,18.13,18.13,0,0,0,3.22-5l2.32,3.14m-21.83-2.33a7.6,7.6,0,0,0,2.89-1.31,9,9,0,0,0,2.27-2.41,11.29,11.29,0,0,0,1.41-3.24,12.28,12.28,0,0,0,.39-3.81c0-.72-.51-1-1.42-.93a2.38,2.38,0,0,0-1.51.8,8.1,8.1,0,0,0-1.33,2.78c-1.09,3.26-1.64,4.88-2.71,8.12" transform="translate(0)"/><path class="cls-4" d="M159.25,168.35a19.06,19.06,0,0,1-3.43,5.43,33.19,33.19,0,0,1-5.37,5,32.2,32.2,0,0,1-6.26,3.65,16.7,16.7,0,0,1-6,1.54,2.41,2.41,0,0,1-2-.81,4.62,4.62,0,0,1-1-2.31,11.24,11.24,0,0,1-3.26,2.54,12.75,12.75,0,0,1-5,1.12,6.58,6.58,0,0,1-4.79-1.45q-1.92-1.61-2.07-5.14a23,23,0,0,1,.63-5.54,47,47,0,0,1,2.21-7.19,67.36,67.36,0,0,1,3.81-8.65,26.46,26.46,0,0,1,3.75-5.43,12.09,12.09,0,0,1,3.82-2.87,11.58,11.58,0,0,1,4-1,6.75,6.75,0,0,1,4.25.75,7.38,7.38,0,0,1,2.1,2.35l.69-2c3.43-.15,5.15-.21,8.59-.3-3,8.17-4.4,12.26-7.25,20.44q-.74,2.17-1,3.08a4.91,4.91,0,0,0-.29,1.6c0,.86.42,1.27,1.22,1.25a6,6,0,0,0,2.81-1,20.71,20.71,0,0,0,3.15-2.4,24.69,24.69,0,0,0,2.8-3A11.51,11.51,0,0,0,157,165l2.22,3.33m-19.16-12.91a1.14,1.14,0,0,0,.13-.56c0-.2,0-.39,0-.56a1.43,1.43,0,0,0-.27-.8,1,1,0,0,0-1-.33,2.21,2.21,0,0,0-1.67.78,6.6,6.6,0,0,0-1.06,2.2c-2.43,7.15-3.63,10.72-6,17.84a7.67,7.67,0,0,0-.54,2.93c0,.91.37,1.34,1,1.3q1.62-.09,3-3.91c2.5-7.54,3.78-11.32,6.37-18.89" transform="translate(0)"/><path class="cls-4" d="M179.67,168.48a16.38,16.38,0,0,1-3.35,5.19,34.36,34.36,0,0,1-5.43,4.8,32.36,32.36,0,0,1-6.32,3.56,16.22,16.22,0,0,1-6.09,1.42,4.43,4.43,0,0,1-3.76-1.76,6.91,6.91,0,0,1-1.41-4.28,11.82,11.82,0,0,1,.16-1.85,9.74,9.74,0,0,1,.58-2.12c3-8.43,4.48-12.64,7.56-21.06l-3.09,0c.71-1.94,1.06-2.91,1.78-4.85l3,0c4-10.69,6-16,10.23-26.61,5-.28,7.54-.39,12.58-.52-4.4,10.8-6.55,16.25-10.75,27.21l3.25.07c-.75,1.91-1.12,2.87-1.85,4.78l-3.24-.06c-3,8-4.55,12-7.5,20a3.89,3.89,0,0,0-.35,1.38.62.62,0,0,0,.71.69,6.13,6.13,0,0,0,2.93-.94,20.81,20.81,0,0,0,3.3-2.34,24.73,24.73,0,0,0,3-3.06,13.06,13.06,0,0,0,2-3l2.09,3.41" transform="translate(0)"/><path class="cls-4" d="M212.63,170.21a17.76,17.76,0,0,1-2.87,4.24,13.71,13.71,0,0,1-3.1,2.51,10.35,10.35,0,0,1-3,1.18,10.15,10.15,0,0,1-2.58.24,5.51,5.51,0,0,1-2.65-.74A3.62,3.62,0,0,1,197,176.1a17.84,17.84,0,0,1-2.93,3,23.14,23.14,0,0,1-3.61,2.43,17.86,17.86,0,0,1-3.92,1.58,13.41,13.41,0,0,1-3.83.5c-5.64-.14-8.44-2.87-8.4-8.27a18.35,18.35,0,0,1,1.4-6.53C182,152.32,188.5,136,195.18,120c4.91.37,7.37.59,12.27,1.11-4.89,11.15-7.27,16.81-11.94,28.24a6.11,6.11,0,0,1,2.32-1.48,7.39,7.39,0,0,1,2.72-.24,4.72,4.72,0,0,1,4.22,2.41,10.32,10.32,0,0,1,1,5.15,20.35,20.35,0,0,1-1.11,5.11q-1,3.25-3,8a3.91,3.91,0,0,0-.33,1.52q-.05,1.62,1.72,1.73a6.75,6.75,0,0,0,4-1.05,10.64,10.64,0,0,0,3.45-3.78l2.06,3.47m-15.76-15.1a2.26,2.26,0,0,0,.09-.59c0-.74-.45-1.14-1.41-1.2a2.1,2.1,0,0,0-1.45.35,3.19,3.19,0,0,0-.9,1.32c-3.09,7.49-4.61,11.27-7.6,18.84a4.67,4.67,0,0,0-.45,1.45q-.08.69-.09,1.2,0,1.38.89,1.41,1.55,0,3.25-3.93c3-7.58,4.55-11.35,7.66-18.84" transform="translate(0)"/><path class="cls-4" d="M246.65,173.81a16.81,16.81,0,0,1-3.83,4.64,32.63,32.63,0,0,1-12.23,6.73,16.87,16.87,0,0,1-6.08.76,2.55,2.55,0,0,1-1.95-1,4.69,4.69,0,0,1-.83-2.38,10.71,10.71,0,0,1-3.44,2.08,12.64,12.64,0,0,1-5.11.48,6.84,6.84,0,0,1-4.65-2,7.12,7.12,0,0,1-1.66-5.43,22.61,22.61,0,0,1,1.06-5.46,43.63,43.63,0,0,1,2.76-6.85,58.23,58.23,0,0,1,4.46-8,22.2,22.2,0,0,1,4.15-4.69,10.4,10.4,0,0,1,4-2.12,11.24,11.24,0,0,1,4.07-.22,7.54,7.54,0,0,1,4.16,1.5,8.43,8.43,0,0,1,1.91,2.62l.83-1.79c3.42.47,5.13.72,8.56,1.24-3.55,7.18-5.31,10.83-8.76,18.23q-.91,2-1.28,2.81a4.39,4.39,0,0,0-.41,1.49,1.13,1.13,0,0,0,1.12,1.36,5.89,5.89,0,0,0,2.87-.6,19.67,19.67,0,0,0,3.32-1.85,22.57,22.57,0,0,0,3-2.47,9.93,9.93,0,0,0,2-2.49l2,3.44m-18.06-15.24a1,1,0,0,0,.17-.52c0-.19,0-.37,0-.54a1.48,1.48,0,0,0-.21-.82,1.17,1.17,0,0,0-.95-.49,2.05,2.05,0,0,0-1.72.47,5.7,5.7,0,0,0-1.22,2c-3,6.55-4.43,9.86-7.33,16.54a7.24,7.24,0,0,0-.77,2.81q-.06,1.35.92,1.42,1.62.13,3.28-3.43c3.07-7,4.63-10.51,7.79-17.39" transform="translate(0)"/><path class="cls-4" d="M272,177.51a16.27,16.27,0,0,1-3.79,4.35,28,28,0,0,1-5.67,3.63,30.26,30.26,0,0,1-6.85,2.37,22.66,22.66,0,0,1-7.42.4,7.82,7.82,0,0,1-5.52-2.85,8.19,8.19,0,0,1-1.74-5.9,11.56,11.56,0,0,1,.32-2,10,10,0,0,1,.75-2c5.91-12.35,12-24.25,18.17-35.55q2.71-4.85,6.73-6.21t10,.22a11.51,11.51,0,0,1,5.16,2.61,4.65,4.65,0,0,1,1.46,4,6.86,6.86,0,0,1-.5,1.81,25,25,0,0,1-1.51,2.85c-2.13,3.44-3.19,5.19-5.3,8.74a27.16,27.16,0,0,1-17.48,13.14c-2.07,4-3.1,6-5.15,10a4.09,4.09,0,0,0-.56,1.62q-.08,1,1.18,1.65a7.16,7.16,0,0,0,2.52.85,8.45,8.45,0,0,0,3.58-.35,18.61,18.61,0,0,0,3.74-1.61,21.73,21.73,0,0,0,3.44-2.4,13.37,13.37,0,0,0,2.53-2.77l1.88,3.35m3.16-33.7q.72-1.22,1-1.74a2.92,2.92,0,0,0,.28-.9c.05-.5-.28-.84-1-1a1.74,1.74,0,0,0-2.1.88c-4.48,7.54-6.68,11.43-11,19.39A7.73,7.73,0,0,0,266,158a25.81,25.81,0,0,0,3.83-5.29c2.11-3.59,3.17-5.37,5.32-8.86" transform="translate(0)"/><path class="cls-4" d="M297.35,181.83a15.6,15.6,0,0,1-3.88,4,28.63,28.63,0,0,1-5.75,3.27,31.56,31.56,0,0,1-6.9,2.07,23.77,23.77,0,0,1-7.43.19,8,8,0,0,1-5.46-2.87,7.64,7.64,0,0,1-1.61-5.69,10.58,10.58,0,0,1,.36-1.88,9,9,0,0,1,.79-1.89c6.18-11.58,12.5-22.59,18.93-32.87a11.59,11.59,0,0,1,6.86-5.42c2.69-.68,6-.4,10,.82a12.5,12.5,0,0,1,5.1,2.73,4.26,4.26,0,0,1,1.38,3.81,5.79,5.79,0,0,1-.54,1.64,21.65,21.65,0,0,1-1.56,2.55c-2.2,3.07-3.3,4.65-5.48,7.84q-6.13,9.22-17.75,11.58c-2.16,3.66-3.23,5.52-5.36,9.28a3.71,3.71,0,0,0-.6,1.52q-.1.91,1.14,1.6a7.52,7.52,0,0,0,2.5.88,8.92,8.92,0,0,0,3.59-.23,19.19,19.19,0,0,0,3.78-1.41,21.77,21.77,0,0,0,3.49-2.15,12.79,12.79,0,0,0,2.59-2.52l1.82,3.2m3.86-31.3c.5-.73.83-1.25,1-1.56a2.5,2.5,0,0,0,.3-.82q.09-.69-1-1a1.74,1.74,0,0,0-2.12.71c-4.63,6.78-6.92,10.31-11.44,17.61a7.66,7.66,0,0,0,3.81-2.16,23.78,23.78,0,0,0,3.95-4.77c2.19-3.25,3.29-4.85,5.5-8" transform="translate(0)"/></g><path class="cls-4" d="M102.15,128.94l11.24-23.64a3.52,3.52,0,0,0,.33-1.18q0-.95-1.53-.95H108q-1.12,0-1.12-1.21a1.12,1.12,0,0,1,1.28-1.25h23.43q-1.16,1.14-1.82,1.84t-1.05,1.21a6.57,6.57,0,0,0-.62.95q-.23.44-.48,1h-3q.33-.76.7-1.44a4.36,4.36,0,0,1,.87-1.14h-5.62a1.06,1.06,0,0,0,0,.19,1.51,1.51,0,0,1,0,.27,13.41,13.41,0,0,1-.27,1.59,14.12,14.12,0,0,1-1.09,2.88l-9.71,20.83Z" transform="translate(0)"/><path class="cls-4" d="M146.11,122.41a6.76,6.76,0,0,1-1.86,2.26,19.31,19.31,0,0,1-3.14,2.14,21,21,0,0,1-3.7,1.61,11.58,11.58,0,0,1-3.57.63,2.86,2.86,0,0,1-2.33-.8,2.77,2.77,0,0,1-.64-1.78,4.54,4.54,0,0,1,.08-.85,3.59,3.59,0,0,1,.33-.93q.95-2,1.92-3.79a35.56,35.56,0,0,0,1.8-3.76q.21-.49.25-.65a1,1,0,0,0,0-.27q0-.49-.62-.49a1.57,1.57,0,0,0-1.53.95l-5.91,12.26h-6.86l13.72-28.23h6.86l-6.36,13a8.35,8.35,0,0,1,1.78-.7,6.59,6.59,0,0,1,1.61-.21,4.3,4.3,0,0,1,2.66.65,2.24,2.24,0,0,1,.81,1.86,5.9,5.9,0,0,1-.19,1.48,13.82,13.82,0,0,1-.56,1.65q-.37.93-.93,2.13t-1.34,2.83l-.23.61a1.25,1.25,0,0,0-.1.42q0,.57.74.57a3.78,3.78,0,0,0,1.49-.42,13.24,13.24,0,0,0,1.82-1,12.57,12.57,0,0,0,1.65-1.31,5,5,0,0,0,1-1.27Z" transform="translate(0)"/><path class="cls-4" d="M163.63,122.41a7.46,7.46,0,0,1-1.36,1.78,12.13,12.13,0,0,1-2.19,1.71,20.45,20.45,0,0,1-4.71,2.35,16.86,16.86,0,0,1-5.41.8q-1.65,0-2.91-.09a7.35,7.35,0,0,1-2.13-.44,2.89,2.89,0,0,1-1.32-1,2.82,2.82,0,0,1-.45-1.69,10.79,10.79,0,0,1,1.28-4.25l1.53-3.15a13.51,13.51,0,0,1,1.61-2.64,7.29,7.29,0,0,1,2-1.76,8.75,8.75,0,0,1,2.73-1,19.27,19.27,0,0,1,3.66-.3,17.15,17.15,0,0,1,2.66.17,5.52,5.52,0,0,1,1.63.47,1.78,1.78,0,0,1,.8.76,2.25,2.25,0,0,1,.23,1,8.84,8.84,0,0,1-.31,2.16,6,6,0,0,1-1.26,2.35,4.9,4.9,0,0,1-1.8,1.31,12.89,12.89,0,0,1-2.5.82,25.16,25.16,0,0,1-2.75.46q-1.39.15-2.54.19-.5,1-.76,1.69a3.4,3.4,0,0,0-.27,1.16q0,1,1.53,1a15.12,15.12,0,0,0,3.47-.42,17.38,17.38,0,0,0,3.37-1.16,15.13,15.13,0,0,0,2.87-1.73,8.08,8.08,0,0,0,2-2.12ZM151,120.48a5,5,0,0,0,1.71-.46,4.59,4.59,0,0,0,1.38-1,4.54,4.54,0,0,0,.91-1.4,4.41,4.41,0,0,0,.33-1.71q0-.49-.78-.49a1.48,1.48,0,0,0-.89.28,3.36,3.36,0,0,0-.85,1.2Z" transform="translate(0)"/><path class="cls-4" d="M137.13,213.47a1.16,1.16,0,0,1-.54.28,8.31,8.31,0,0,1-1.24.17l.15,1a6.94,6.94,0,0,1,.07,1,9.09,9.09,0,0,1-.94,3.94,11.9,11.9,0,0,1-2.61,3.55,13.69,13.69,0,0,1-3.94,2.57,12.24,12.24,0,0,1-5,1,11.12,11.12,0,0,1-2.65-.3,6.87,6.87,0,0,1-2.07-.85,4,4,0,0,1-1.35-1.41,3.91,3.91,0,0,1-.48-2,7.82,7.82,0,0,1,.91-3.66,11.56,11.56,0,0,1,2.42-3.14,15.45,15.45,0,0,1,3.46-2.41,17.28,17.28,0,0,1,4-1.48q-.07-.56-.11-1.18t0-1.48a7.4,7.4,0,0,1,.7-3.15,11,11,0,0,1,1.89-2.81,7,7,0,0,0-2.35-1.52,5.82,5.82,0,0,0-1.76-.37,4.46,4.46,0,0,0-.94.09,4.16,4.16,0,0,0-.94.35c-.35.2-.63.35-.85.46a1.36,1.36,0,0,1-.59.17.84.84,0,0,1-.52-.2.73.73,0,0,1-.26-.61,1.48,1.48,0,0,1,.39-1,2.82,2.82,0,0,1,1-.72,6.72,6.72,0,0,1,1.48-.43,9.91,9.91,0,0,1,1.72-.15,8.08,8.08,0,0,1,3,.52,9.73,9.73,0,0,1,2.61,1.59,11.15,11.15,0,0,1,3.24-1.59,12.09,12.09,0,0,1,3.5-.52,4.89,4.89,0,0,1,2.76.7,2.33,2.33,0,0,1,1.05,2.07,4.46,4.46,0,0,1-.46,2.05,4.82,4.82,0,0,1-1.22,1.54,5.5,5.5,0,0,1-1.7,1,5.57,5.57,0,0,1-1.87.33,7.19,7.19,0,0,1-3.18-.67,5.24,5.24,0,0,0-.26,1.09,9.12,9.12,0,0,0-.07,1.17,3.84,3.84,0,0,0,.3,1.39q.3.76.7,1.68c.35,0,.7,0,1.07,0h1.18a3.38,3.38,0,0,0,1.26-.22Zm-9,1.29a16.29,16.29,0,0,0-2.52,1.11,10.4,10.4,0,0,0-2.16,1.55,7,7,0,0,0-1.5,2,5.59,5.59,0,0,0-.56,2.5,2.68,2.68,0,0,0,.56,1.68,1.81,1.81,0,0,0,1.52.72,4.55,4.55,0,0,0,2.39-.61,5.8,5.8,0,0,0,1.68-1.5,6.62,6.62,0,0,0,1-1.89,5.7,5.7,0,0,0,.33-1.78q0-.37,0-.74a5.45,5.45,0,0,0-.11-.81q-.09-.44-.24-1T128.18,214.77Zm7-10.84a5.22,5.22,0,0,0,1.05.46,3.77,3.77,0,0,0,1.13.17,2,2,0,0,0,.74-.15,2.9,2.9,0,0,0,.67-.37,2.4,2.4,0,0,0,.5-.5.92.92,0,0,0,.2-.54,1,1,0,0,0-.28-.7,1,1,0,0,0-.8-.3,3.25,3.25,0,0,0-1.7.52A5.43,5.43,0,0,0,135.13,203.92Z" transform="translate(0)"/><path class="cls-4" d="M149.38,220.5a7,7,0,0,1-1.72,2.26,16.62,16.62,0,0,1-2.83,2.09,17.63,17.63,0,0,1-3.33,1.54,10,10,0,0,1-3.22.59,2.57,2.57,0,0,1-2-.78,2.62,2.62,0,0,1-.72-1.85,4.12,4.12,0,0,1,.09-.8,3.57,3.57,0,0,1,.31-.91l4-9h-1.59l.93-2.07h1.55L146,200.15l6.29-.41L147,211.58h1.67l-.93,2.07h-1.66l-3.85,8.58a1.43,1.43,0,0,0-.19.59c0,.2.12.3.37.3a3.7,3.7,0,0,0,1.54-.41,10.94,10.94,0,0,0,1.72-1,11.74,11.74,0,0,0,1.55-1.33,5.55,5.55,0,0,0,1-1.31Z" transform="translate(0)"/><path class="cls-4" d="M168.43,214.69q-2,2.15-6.36,2.59a33,33,0,0,1-2.44,5.14,11,11,0,0,1-2.46,2.92,6.7,6.7,0,0,1-2.72,1.31,14.82,14.82,0,0,1-3.15.31,6.59,6.59,0,0,1-3.77-.8,2.55,2.55,0,0,1-1.07-2.16,8.08,8.08,0,0,1,.93-3.29l1.7-3.7a17.17,17.17,0,0,1,1.61-2.81,8.62,8.62,0,0,1,1.74-1.83,6,6,0,0,1,1.89-1,7.06,7.06,0,0,1,2.05-.3l1,0a2.2,2.2,0,0,1,.56.09,4.69,4.69,0,0,1,3.29-1.22,2.76,2.76,0,0,1,1.85.52,1.86,1.86,0,0,1,.59,1.48,6.11,6.11,0,0,1-.67,2.48l.65.13a2.73,2.73,0,0,0,.54.06,5,5,0,0,0,1.57-.28,6.2,6.2,0,0,0,1.76-1Zm-11.25,1.11a1.26,1.26,0,0,1-.54-.65,2.45,2.45,0,0,1-.17-.91,2.77,2.77,0,0,1,0-.52,1.91,1.91,0,0,0-.65.54,5.12,5.12,0,0,0-.61,1.17l-3.4,7.77a1.8,1.8,0,0,0-.19.74q0,.7.63.7a1.36,1.36,0,0,0,.8-.28,2.12,2.12,0,0,0,.65-.8Zm3.63-1.66a2.42,2.42,0,0,0,.2-.48,2,2,0,0,0,.09-.59,1.28,1.28,0,0,0-.13-.61.48.48,0,0,0-.46-.24q-.89,0-.89.85Q159.62,214.14,160.81,214.14Z" transform="translate(0)"/><path class="cls-4" d="M182.23,220.5a5.93,5.93,0,0,1-.67,1.11,6.71,6.71,0,0,1-1.24,1.28,8,8,0,0,1-1.74,1.05,5.28,5.28,0,0,1-2.2.44,2.22,2.22,0,0,1-1.07-.26,2.06,2.06,0,0,1-.74-.63,9.65,9.65,0,0,1-3,2.72,6.21,6.21,0,0,1-2.92.76,3.45,3.45,0,0,1-1.22-.19,1.54,1.54,0,0,1-.63-.37l-3.22,7.25h-6.07l9.77-21.94h4.37l-.55,1.29a6.55,6.55,0,0,1,1.81-1.41,6.12,6.12,0,0,1,2.78-.52,3.2,3.2,0,0,1,2.26.72,2.52,2.52,0,0,1,.78,1.94,9.17,9.17,0,0,1-.46,2.65,30.9,30.9,0,0,1-1.43,3.61,2.09,2.09,0,0,0-.11.67q0,.7.93.7a3.49,3.49,0,0,0,1.87-.59,4.6,4.6,0,0,0,1.57-1.74ZM174,215a1.48,1.48,0,0,0,.15-.67q0-.59-.63-.59a1.19,1.19,0,0,0-1.18.78l-3.92,8.62a1.68,1.68,0,0,0-.15.41,1.72,1.72,0,0,0,0,.3q0,.67.59.67.81,0,1.67-1.74Z" transform="translate(0)"/><path class="cls-4" d="M199.25,220.5a6,6,0,0,1-.67,1.11,6.71,6.71,0,0,1-1.24,1.28,8.06,8.06,0,0,1-1.74,1.05,5.28,5.28,0,0,1-2.2.44,2.22,2.22,0,0,1-1.07-.26,2.07,2.07,0,0,1-.74-.63,9.66,9.66,0,0,1-3,2.72,6.22,6.22,0,0,1-2.92.76,3.44,3.44,0,0,1-1.22-.19,1.53,1.53,0,0,1-.63-.37l-3.22,7.25h-6.07l9.77-21.94h4.37l-.56,1.29a6.55,6.55,0,0,1,1.81-1.41,6.12,6.12,0,0,1,2.77-.52,3.2,3.2,0,0,1,2.26.72,2.52,2.52,0,0,1,.78,1.94,9.14,9.14,0,0,1-.46,2.65,31.05,31.05,0,0,1-1.42,3.61,2.09,2.09,0,0,0-.11.67q0,.7.93.7a3.49,3.49,0,0,0,1.87-.59,4.6,4.6,0,0,0,1.57-1.74ZM191,215a1.48,1.48,0,0,0,.15-.67q0-.59-.63-.59a1.19,1.19,0,0,0-1.18.78l-3.92,8.62a1.63,1.63,0,0,0-.19.7q0,.67.59.67.81,0,1.67-1.74Z" transform="translate(0)"/><path class="cls-4" d="M215,220.5a7.26,7.26,0,0,1-1.22,1.74,11.05,11.05,0,0,1-2,1.67,17.74,17.74,0,0,1-4.22,2.29,14,14,0,0,1-4.85.78q-1.48,0-2.61-.09a6.11,6.11,0,0,1-1.91-.43,2.61,2.61,0,0,1-1.18-.94,2.93,2.93,0,0,1-.41-1.65,11.24,11.24,0,0,1,1.15-4.14l1.37-3.07a13.46,13.46,0,0,1,1.44-2.57,6.74,6.74,0,0,1,1.83-1.72,7.43,7.43,0,0,1,2.44-1,15.87,15.87,0,0,1,3.27-.3,14.2,14.2,0,0,1,2.39.17,4.65,4.65,0,0,1,1.46.46,1.67,1.67,0,0,1,.72.74,2.38,2.38,0,0,1,.2,1,9.38,9.38,0,0,1-.28,2.11,6,6,0,0,1-1.13,2.29,4.43,4.43,0,0,1-1.61,1.28,10.9,10.9,0,0,1-2.24.8,21,21,0,0,1-2.46.44q-1.24.15-2.28.18-.44,1-.68,1.65a3.58,3.58,0,0,0-.24,1.13q0,1,1.37,1a12.51,12.51,0,0,0,3.11-.41,14.71,14.71,0,0,0,3-1.13,13.43,13.43,0,0,0,2.57-1.68,7.68,7.68,0,0,0,1.78-2.07Zm-11.29-1.89a4.21,4.21,0,0,0,2.77-1.41,4.48,4.48,0,0,0,.81-1.37,4.63,4.63,0,0,0,.3-1.67q0-.48-.7-.48a1.25,1.25,0,0,0-.79.28,3.26,3.26,0,0,0-.76,1.17Z" transform="translate(0)"/></svg>