<svg version="1.1" id="Layer_1" xmlns="http://www.w3.org/2000/svg" xmlns:xlink="http://www.w3.org/1999/xlink" x="0" y="0" viewBox="0 0 302 156" xml:space="preserve" enable-background="new 0 0 302 156"><style type="text/css">.st0,.st1{clip-path:url(#SVGID_2_);fill:#fff}.st1{clip-path:url(#SVGID_4_)}.st2,.st3{clip-path:url(#SVGID_6_);fill:#fff}.st3{clip-path:url(#SVGID_8_)}.st4,.st5{clip-path:url(#SVGID_10_);fill:#fff}.st5{clip-path:url(#SVGID_12_)}.st6,.st7{clip-path:url(#SVGID_14_);fill:#fff}.st7{clip-path:url(#SVGID_16_)}.st8{enable-background:new}.st9{fill:#fff}</style><g><g><g><defs><rect id="SVGID_1_" x="-105.2" y="-173.3" width="500" height="500"/></defs><clipPath id="SVGID_2_"><use xlink:href="#SVGID_1_" overflow="visible"/></clipPath><path class="st0" d="M80.2,83.7c-0.5,1.7-1.5,3.5-3,5.3s-3.2,3.5-5.1,5.1s-4,2.9-6.1,4s-4.1,1.7-5.9,2c-1.7,0.2-3.1-0.1-4.1-0.9 s-1.6-2-1.7-3.4c-0.1-1,0-2.2,0.4-3.6c4.3-14.5,8.8-29.4,13.5-44.5c0.2-0.7,0.3-1.4,0.2-2c0-0.6-0.4-0.9-1.2-0.7 c-0.8,0.2-1.7,0.6-2.6,1.4c-1,0.8-1.9,1.7-2.9,2.8s-1.8,2.2-2.7,3.5c-0.8,1.3-1.4,2.4-1.9,3.4c-4.7,15.6-9.2,30.9-13.5,45.8 l-11.5,1.5c4.8-16.6,9.8-33.7,15.1-51.3c0.2-0.7,0.2-1.3,0.2-1.9c-0.1-0.6-0.5-0.8-1.2-0.6c-0.8,0.2-1.6,0.7-2.6,1.5 s-1.9,1.7-2.8,2.8c-0.9,1.1-1.8,2.3-2.6,3.5s-1.4,2.4-1.8,3.4c-4.4,15-8.6,29.6-12.7,43.8c-4.8,0.7-7.2,1-12,1.7 c4.5-15.6,9.2-31.9,14.1-48.7C26,57,26,56.5,26,56.1c-0.1-1-1.2-1.2-3.1-0.7c-0.3,0.1-0.4,0.1-0.7,0.2c-1.5,0.4-2.3,0-2.5-1.2 c-0.1-1,0.2-1.9,1-2.7s2.6-1.6,5.3-2.4c3.6-1,6.5-1.5,8.7-1.5c2.2,0.1,3.5,1,3.8,2.7c1.3-1.8,2.7-3.4,4.5-4.7 c1.7-1.3,4-2.3,6.7-3c2.9-0.7,5.1-0.7,6.6-0.1c1.5,0.7,2.4,1.9,2.7,3.7c1.5-2.3,3.2-4.1,5-5.5c1.8-1.4,4.1-2.4,6.8-2.9 c3-0.6,5.3-0.5,6.8,0.4s2.3,2.4,2.4,4.5c0.1,1.8-0.3,4.2-1.2,7c-4.2,13.4-8.3,26.6-12.2,39.6c-0.1,0.2-0.1,0.4-0.1,0.7 c0,0.5,0.4,0.7,1,0.6c0.7-0.1,1.7-0.5,2.7-1.2c1.1-0.7,2.1-1.5,3.1-2.6c1-1,1.9-2.1,2.7-3.3c0.8-1.2,1.4-2.2,1.7-3.2 C78.8,81.9,79.3,82.5,80.2,83.7"/></g></g><g><g><defs><rect id="SVGID_3_" x="-105.2" y="-173.3" width="500" height="500"/></defs><clipPath id="SVGID_4_"><use xlink:href="#SVGID_3_" overflow="visible"/></clipPath><path class="st1" d="M110.2,80.7c-0.5,1.3-1.2,2.7-2.2,4.1s-2.2,2.8-3.6,4.1c-2.6,2.5-5.2,4.4-7.8,5.8c-2.6,1.4-5.6,2.2-9.1,2.5 c-1.9,0.2-3.5,0.2-4.9,0.2s-2.6-0.2-3.7-0.6c-1-0.4-1.8-1-2.4-1.8s-0.9-2-1-3.5c-0.2-2.2,0.4-5.3,1.6-9.3 c0.9-2.8,1.3-4.2,2.2-7.1c0.7-2.3,1.5-4.3,2.4-6s2-3.1,3.3-4.3s2.9-2.1,4.6-2.8c1.8-0.7,3.9-1.2,6.3-1.4c1.9-0.2,3.4-0.3,4.7-0.1 c1.2,0.1,2.2,0.4,2.9,0.8c0.7,0.4,1.2,0.9,1.5,1.5s0.5,1.4,0.5,2.2c0.1,1.4-0.1,3-0.3,4.8c-0.3,1.8-0.9,3.6-2,5.4 c-0.7,1.2-1.7,2.3-3,3.2S97.5,80,96,80.6s-3.1,1.1-4.7,1.5s-3,0.7-4.3,0.9c-0.5,1.5-0.8,2.8-1.1,3.8c-0.2,1-0.3,1.9-0.3,2.6 c0.1,1.5,1,2.1,2.7,2c1.9-0.2,3.9-0.7,5.9-1.4c2-0.8,3.9-1.8,5.6-3c1.8-1.2,3.3-2.6,4.7-4.2c1.4-1.6,2.5-3.2,3.2-5 C108.8,78.9,109.3,79.5,110.2,80.7 M88.4,78.4c1-0.2,2-0.7,2.9-1.3s1.7-1.5,2.3-2.4c0.6-1,1.1-2,1.4-3.2s0.5-2.5,0.4-3.8 c0-0.7-0.5-1-1.4-0.9c-0.6,0.1-1.1,0.3-1.5,0.8s-0.9,1.4-1.3,2.8C90,73.5,89.5,75.2,88.4,78.4"/></g></g><g><g><defs><rect id="SVGID_5_" x="-105.2" y="-173.3" width="500" height="500"/></defs><clipPath id="SVGID_6_"><use xlink:href="#SVGID_5_" overflow="visible"/></clipPath><path class="st2" d="M144.2,79.4c-0.7,1.8-1.8,3.6-3.4,5.4c-1.6,1.8-3.4,3.5-5.4,5s-4.1,2.7-6.3,3.7s-4.2,1.5-6,1.5 c-0.8,0-1.5-0.2-2-0.8s-0.8-1.3-1-2.3c-1,1.1-2,1.9-3.3,2.5c-1.2,0.6-2.9,1-5,1.1c-1.9,0.1-3.5-0.4-4.8-1.5s-2-2.8-2.1-5.1 c-0.1-1.5,0.1-3.3,0.6-5.5s1.2-4.6,2.2-7.2c1.3-3.5,2.6-6.4,3.8-8.6c1.2-2.3,2.5-4.1,3.7-5.4c1.3-1.3,2.5-2.3,3.8-2.9 c1.3-0.6,2.6-0.9,4-1c2-0.1,3.4,0.1,4.2,0.8c0.9,0.6,1.6,1.4,2.1,2.3c0.3-0.8,0.4-1.2,0.7-2c3.4-0.1,5.2-0.2,8.6-0.3 c-3,8.2-4.4,12.3-7.2,20.4c-0.5,1.4-0.8,2.5-1,3.1s-0.3,1.1-0.3,1.6c0,0.9,0.4,1.3,1.2,1.2c0.8,0,1.7-0.4,2.8-1 c1.1-0.7,2.1-1.5,3.2-2.4c1-0.9,2-1.9,2.8-3s1.4-2.1,1.8-2.9C142.9,77.4,143.4,78,144.2,79.4 M125.1,66.4 c0.1-0.2,0.1-0.4,0.1-0.6v-0.6c0-0.3-0.1-0.6-0.3-0.8s-0.5-0.4-1-0.3c-0.7,0-1.3,0.3-1.7,0.8s-0.8,1.2-1.1,2.2 c-2.4,7.2-3.6,10.7-6,17.8c-0.4,1-0.6,2-0.5,2.9c0,0.9,0.4,1.3,1,1.3c1.1-0.1,2.1-1.4,3-3.9C121.2,77.8,122.5,74,125.1,66.4"/></g></g><g><g><defs><rect id="SVGID_7_" x="-105.2" y="-173.3" width="500" height="500"/></defs><clipPath id="SVGID_8_"><use xlink:href="#SVGID_7_" overflow="visible"/></clipPath><path class="st3" d="M164.7,79.5c-0.6,1.7-1.8,3.4-3.3,5.2c-1.6,1.8-3.4,3.4-5.4,4.8s-4.1,2.6-6.3,3.6c-2.2,0.9-4.2,1.4-6.1,1.4 c-1.6,0-2.8-0.6-3.8-1.8c-0.9-1.2-1.4-2.6-1.4-4.3c0-0.5,0-1.1,0.2-1.9c0.1-0.7,0.3-1.4,0.6-2.1c3-8.4,4.5-12.6,7.6-21.1h-3.1 c0.7-1.9,1.1-2.9,1.8-4.9h3c4-10.7,6-16,10.2-26.6c5-0.3,7.5-0.4,12.6-0.5c-4.4,10.8-6.5,16.3-10.7,27.2c1.3,0,2,0,3.3,0.1 c-0.7,1.9-1.1,2.9-1.9,4.8c-1.3,0-1.9,0-3.2-0.1l-7.5,20c-0.2,0.6-0.4,1-0.4,1.4c0,0.5,0.2,0.7,0.7,0.7c0.8,0,1.8-0.3,2.9-0.9 c1.1-0.6,2.2-1.4,3.3-2.3s2.1-2,3-3.1s1.6-2.1,2-3C163.4,77.4,163.8,78.1,164.7,79.5"/></g></g><g><g><defs><rect id="SVGID_9_" x="-105.2" y="-173.3" width="500" height="500"/></defs><clipPath id="SVGID_10_"><use xlink:href="#SVGID_9_" overflow="visible"/></clipPath><path class="st4" d="M197.6,81.2c-0.9,1.7-1.8,3.2-2.9,4.2c-1,1.1-2.1,1.9-3.1,2.5s-2,1-3,1.2s-1.8,0.3-2.6,0.2 c-1.1-0.1-2-0.3-2.7-0.7s-1.2-0.9-1.4-1.5c-0.8,1.1-1.8,2.1-2.9,3c-1.1,0.9-2.3,1.7-3.6,2.4s-2.6,1.2-3.9,1.6 c-1.3,0.4-2.6,0.5-3.8,0.5c-5.6-0.1-8.4-2.9-8.4-8.3c0-2,0.5-4.2,1.4-6.5C167,63.3,173.5,47,180.2,31c4.9,0.4,7.4,0.6,12.3,1.1 c-4.9,11.1-7.3,16.8-11.9,28.2c0.8-0.8,1.6-1.2,2.3-1.5c0.8-0.2,1.7-0.3,2.7-0.2c2.1,0.2,3.5,1,4.2,2.4c0.7,1.5,1.1,3.2,1,5.2 c0,1.2-0.4,2.9-1.1,5.1c-0.7,2.2-1.7,4.8-3,8c-0.2,0.4-0.3,0.9-0.3,1.5c0,1.1,0.5,1.7,1.7,1.7c1.4,0.1,2.8-0.3,4-1.1 c1.3-0.8,2.4-2,3.5-3.8C196.4,79.1,196.8,79.8,197.6,81.2 M181.9,66.1c0.1-0.2,0.1-0.4,0.1-0.6c0-0.7-0.4-1.1-1.4-1.2 c-0.6,0-1.1,0.1-1.4,0.3c-0.3,0.3-0.6,0.7-0.9,1.3c-3.1,7.5-4.6,11.3-7.6,18.8c-0.2,0.5-0.4,1-0.5,1.4c-0.1,0.5-0.1,0.9-0.1,1.2 c0,0.9,0.3,1.4,0.9,1.4c1,0,2.1-1.3,3.3-3.9C177.2,77.4,178.8,73.6,181.9,66.1"/></g></g><g><g><defs><rect id="SVGID_11_" x="-105.2" y="-173.3" width="500" height="500"/></defs><clipPath id="SVGID_12_"><use xlink:href="#SVGID_11_" overflow="visible"/></clipPath><path class="st5" d="M231.7,84.8c-0.8,1.6-2.1,3.1-3.8,4.6s-3.6,2.9-5.7,4c-2.1,1.2-4.3,2.1-6.5,2.7c-2.2,0.7-4.3,0.9-6.1,0.8 c-0.8-0.1-1.5-0.4-1.9-1c-0.5-0.6-0.7-1.4-0.8-2.4c-1,0.9-2.2,1.6-3.4,2.1c-1.3,0.5-3,0.6-5.1,0.5c-1.9-0.1-3.5-0.8-4.6-2 c-1.2-1.2-1.7-3-1.7-5.4c0.1-1.5,0.4-3.3,1.1-5.5c0.7-2.2,1.6-4.5,2.8-6.8c1.6-3.3,3-5.9,4.5-8c1.4-2,2.8-3.6,4.1-4.7 c1.4-1.1,2.7-1.8,4-2.1s2.7-0.4,4.1-0.2c2,0.2,3.4,0.8,4.2,1.5s1.4,1.6,1.9,2.6c0.3-0.7,0.5-1.1,0.8-1.8c3.4,0.5,5.1,0.7,8.6,1.2 c-3.6,7.2-5.3,10.8-8.8,18.2c-0.6,1.3-1,2.3-1.3,2.8c-0.2,0.6-0.4,1.1-0.4,1.5c-0.1,0.8,0.3,1.3,1.1,1.4s1.8-0.1,2.9-0.6 c1.1-0.5,2.2-1.1,3.3-1.9c1.1-0.7,2.1-1.6,3-2.5s1.6-1.7,2-2.5C230.5,82.7,230.9,83.4,231.7,84.8 M213.6,69.6 c0.1-0.2,0.2-0.3,0.2-0.5v-0.5c0-0.3-0.1-0.5-0.2-0.8c-0.2-0.3-0.5-0.4-0.9-0.5c-0.7-0.1-1.3,0.1-1.7,0.5s-0.8,1-1.2,2 c-3,6.6-4.4,9.9-7.3,16.5c-0.5,1-0.7,1.9-0.8,2.8c0,0.9,0.3,1.4,0.9,1.4c1.1,0.1,2.2-1.1,3.3-3.4 C208.9,79.9,210.4,76.5,213.6,69.6"/></g></g><g><g><defs><rect id="SVGID_13_" x="-105.2" y="-173.3" width="500" height="500"/></defs><clipPath id="SVGID_14_"><use xlink:href="#SVGID_13_" overflow="visible"/></clipPath><path class="st6" d="M257,88.5c-0.9,1.5-2.1,3-3.8,4.3c-1.7,1.4-3.5,2.6-5.7,3.6c-2.1,1-4.4,1.8-6.8,2.4 c-2.4,0.5-4.9,0.7-7.4,0.4c-2.4-0.3-4.2-1.2-5.5-2.8s-1.9-3.6-1.7-5.9c0-0.7,0.2-1.3,0.3-2c0.2-0.7,0.4-1.3,0.7-2 c5.9-12.3,12-24.2,18.2-35.5c1.8-3.2,4.1-5.3,6.7-6.2c2.7-0.9,6-0.8,10,0.2c2.3,0.6,4,1.5,5.2,2.6s1.6,2.5,1.5,4 c-0.1,0.5-0.2,1.1-0.5,1.8s-0.8,1.6-1.5,2.9c-2.1,3.4-3.2,5.2-5.3,8.7c-3.9,6.8-9.8,11.2-17.5,13.1c-2.1,4-3.1,6-5.1,10 c-0.3,0.6-0.5,1.1-0.6,1.6c-0.1,0.6,0.3,1.2,1.2,1.6c0.8,0.5,1.7,0.7,2.5,0.9c1.1,0.1,2.3,0,3.6-0.4s2.5-0.9,3.7-1.6 s2.4-1.5,3.4-2.4c1.1-0.9,1.9-1.8,2.5-2.8C255.9,86.5,256.3,87.2,257,88.5 M260.2,54.8c0.5-0.8,0.8-1.4,1-1.7s0.3-0.6,0.3-0.9 c0.1-0.5-0.3-0.8-1-1c-0.9-0.2-1.6,0.1-2.1,0.9c-4.5,7.5-6.7,11.4-11,19.4c1.1-0.2,2.4-1.1,3.8-2.5s2.7-3.2,3.8-5.3 C257,60.1,258.1,58.3,260.2,54.8"/></g></g><g><g><defs><rect id="SVGID_15_" x="-105.2" y="-173.3" width="500" height="500"/></defs><clipPath id="SVGID_16_"><use xlink:href="#SVGID_15_" overflow="visible"/></clipPath><path class="st7" d="M282.4,92.8c-0.9,1.4-2.2,2.7-3.9,4c-1.7,1.3-3.6,2.3-5.7,3.3c-2.1,0.9-4.4,1.6-6.9,2.1 c-2.5,0.4-4.9,0.5-7.4,0.2c-2.4-0.3-4.2-1.3-5.5-2.9s-1.8-3.5-1.6-5.7c0.1-0.6,0.2-1.2,0.4-1.9c0.2-0.6,0.4-1.3,0.8-1.9 c6.2-11.6,12.5-22.6,18.9-32.9c1.9-2.9,4.2-4.7,6.9-5.4c2.7-0.7,6-0.4,10,0.8c2.3,0.7,4,1.6,5.1,2.7c1.1,1.1,1.6,2.4,1.4,3.8 c-0.1,0.5-0.3,1-0.5,1.6c-0.3,0.6-0.8,1.4-1.6,2.6c-2.2,3.1-3.3,4.6-5.5,7.8c-4.1,6.1-10,10-17.8,11.6c-2.2,3.7-3.2,5.5-5.4,9.3 c-0.3,0.6-0.5,1.1-0.6,1.5c-0.1,0.6,0.3,1.1,1.1,1.6s1.7,0.8,2.5,0.9c1.1,0.2,2.3,0.1,3.6-0.2c1.3-0.3,2.5-0.8,3.8-1.4 c1.2-0.6,2.4-1.3,3.5-2.2c1.1-0.8,1.9-1.7,2.6-2.5C281.3,90.9,281.6,91.6,282.4,92.8 M286.2,61.5c0.5-0.7,0.8-1.3,1-1.6 s0.3-0.6,0.3-0.8c0.1-0.5-0.3-0.8-1-1c-0.9-0.3-1.6,0-2.1,0.7c-4.6,6.8-6.9,10.3-11.4,17.6c1.1-0.2,2.4-0.9,3.8-2.2 s2.7-2.9,3.9-4.8C282.9,66.3,284,64.7,286.2,61.5"/></g></g></g><g class="st8"><path class="st9" d="M87.2,39.9l11.2-23.6c0.2-0.5,0.3-0.9,0.3-1.2c0-0.6-0.5-0.9-1.5-0.9H93c-0.7,0-1.1-0.4-1.1-1.2 c0-0.8,0.4-1.3,1.3-1.3h23.4c-0.8,0.8-1.4,1.4-1.8,1.8c-0.4,0.5-0.8,0.9-1.1,1.2c-0.3,0.3-0.5,0.7-0.6,0.9c-0.2,0.3-0.3,0.6-0.5,1 h-3c0.2-0.5,0.5-1,0.7-1.4c0.2-0.5,0.5-0.8,0.9-1.1h-5.6c0,0.1,0,0.1,0,0.2c0,0.1,0,0.2,0,0.3c0,0.4-0.1,0.9-0.3,1.6 c-0.2,0.7-0.5,1.7-1.1,2.9l-9.7,20.8H87.2z"/></g><g class="st8"><path class="st9" d="M131.1,33.4c-0.3,0.7-1,1.5-1.9,2.3c-0.9,0.8-2,1.5-3.1,2.1c-1.2,0.7-2.4,1.2-3.7,1.6s-2.5,0.6-3.6,0.6 c-1.1,0-1.9-0.3-2.3-0.8c-0.4-0.5-0.6-1.1-0.6-1.8c0-0.3,0-0.6,0.1-0.9c0.1-0.3,0.2-0.6,0.3-0.9c0.6-1.4,1.3-2.6,1.9-3.8 c0.6-1.2,1.2-2.4,1.8-3.8c0.1-0.3,0.2-0.5,0.2-0.6s0-0.2,0-0.3c0-0.3-0.2-0.5-0.6-0.5c-0.7,0-1.2,0.3-1.5,0.9l-5.9,12.3h-6.9 l13.7-28.2h6.9l-6.4,13c0.6-0.3,1.2-0.6,1.8-0.7c0.6-0.1,1.1-0.2,1.6-0.2c1.2,0,2.1,0.2,2.7,0.6c0.5,0.4,0.8,1.1,0.8,1.9 c0,0.5-0.1,1-0.2,1.5s-0.3,1-0.6,1.7c-0.2,0.6-0.6,1.3-0.9,2.1c-0.4,0.8-0.8,1.7-1.3,2.8c-0.1,0.2-0.2,0.4-0.2,0.6 c-0.1,0.2-0.1,0.3-0.1,0.4c0,0.4,0.2,0.6,0.7,0.6c0.4,0,0.9-0.1,1.5-0.4c0.6-0.3,1.2-0.6,1.8-1c0.6-0.4,1.2-0.8,1.7-1.3 c0.5-0.5,0.8-0.9,1-1.3L131.1,33.4z"/><path class="st9" d="M148.7,33.4c-0.3,0.6-0.8,1.2-1.4,1.8c-0.6,0.6-1.3,1.2-2.2,1.7c-1.6,1-3.1,1.8-4.7,2.4 c-1.6,0.5-3.4,0.8-5.4,0.8c-1.1,0-2.1,0-2.9-0.1c-0.8-0.1-1.5-0.2-2.1-0.4c-0.6-0.2-1-0.6-1.3-1c-0.3-0.4-0.5-1-0.5-1.7 c0-1,0.4-2.5,1.3-4.2l1.5-3.1c0.5-1,1-1.9,1.6-2.6c0.6-0.7,1.3-1.3,2-1.8c0.8-0.5,1.7-0.8,2.7-1c1-0.2,2.3-0.3,3.7-0.3 c1.1,0,2,0.1,2.7,0.2c0.7,0.1,1.2,0.3,1.6,0.5c0.4,0.2,0.7,0.5,0.8,0.8c0.2,0.3,0.2,0.6,0.2,1c0,0.6-0.1,1.4-0.3,2.2 c-0.2,0.8-0.6,1.6-1.3,2.4c-0.4,0.5-1,1-1.8,1.3c-0.8,0.3-1.6,0.6-2.5,0.8c-0.9,0.2-1.8,0.4-2.7,0.5c-0.9,0.1-1.8,0.2-2.5,0.2 c-0.3,0.7-0.6,1.2-0.8,1.7c-0.2,0.5-0.3,0.9-0.3,1.2c0,0.7,0.5,1,1.5,1c1.1,0,2.3-0.1,3.5-0.4c1.2-0.3,2.3-0.7,3.4-1.2 c1.1-0.5,2-1.1,2.9-1.7c0.9-0.7,1.5-1.4,2-2.1L148.7,33.4z M136.1,31.5c0.6-0.1,1.2-0.2,1.7-0.5s1-0.6,1.4-1 c0.4-0.4,0.7-0.9,0.9-1.4c0.2-0.5,0.3-1.1,0.3-1.7c0-0.3-0.3-0.5-0.8-0.5c-0.3,0-0.6,0.1-0.9,0.3c-0.3,0.2-0.5,0.6-0.8,1.2 L136.1,31.5z"/></g><g class="st8"><path class="st9" d="M122.1,124.5c-0.1,0.1-0.3,0.2-0.5,0.3c-0.2,0.1-0.6,0.1-1.2,0.2c0,0.3,0.1,0.6,0.1,1c0,0.3,0.1,0.7,0.1,1 c0,1.3-0.3,2.6-0.9,3.9c-0.6,1.3-1.5,2.5-2.6,3.6c-1.1,1-2.4,1.9-3.9,2.6s-3.2,1-5,1c-1,0-1.8-0.1-2.6-0.3 c-0.8-0.2-1.5-0.5-2.1-0.9c-0.6-0.4-1-0.8-1.4-1.4c-0.3-0.6-0.5-1.2-0.5-2c0-1.3,0.3-2.5,0.9-3.7c0.6-1.2,1.4-2.2,2.4-3.1 c1-0.9,2.2-1.7,3.5-2.4s2.6-1.2,4-1.5c0-0.4-0.1-0.8-0.1-1.2c0-0.4,0-0.9,0-1.5c0-1.1,0.2-2.1,0.7-3.1c0.5-1,1.1-1.9,1.9-2.8 c-0.8-0.8-1.6-1.3-2.3-1.5c-0.7-0.2-1.3-0.4-1.8-0.4c-0.3,0-0.7,0-0.9,0.1c-0.3,0.1-0.6,0.2-0.9,0.4c-0.3,0.2-0.6,0.4-0.9,0.5 c-0.2,0.1-0.4,0.2-0.6,0.2c-0.2,0-0.3-0.1-0.5-0.2c-0.2-0.1-0.3-0.3-0.3-0.6c0-0.4,0.1-0.7,0.4-1c0.3-0.3,0.6-0.5,1-0.7 c0.4-0.2,0.9-0.3,1.5-0.4c0.6-0.1,1.1-0.1,1.7-0.1c1.1,0,2.1,0.2,3,0.5c0.9,0.3,1.7,0.9,2.6,1.6c1-0.7,2.1-1.2,3.2-1.6 c1.1-0.3,2.3-0.5,3.5-0.5c1.1,0,2.1,0.2,2.8,0.7s1.1,1.2,1.1,2.1c0,0.8-0.2,1.4-0.5,2.1c-0.3,0.6-0.7,1.1-1.2,1.5 c-0.5,0.4-1.1,0.7-1.7,1c-0.6,0.2-1.3,0.3-1.9,0.3c-1.2,0-2.3-0.2-3.2-0.7c-0.1,0.3-0.2,0.7-0.3,1.1c0,0.4-0.1,0.8-0.1,1.2 c0,0.4,0.1,0.9,0.3,1.4c0.2,0.5,0.4,1.1,0.7,1.7c0.3,0,0.7,0,1.1,0c0.4,0,0.8,0,1.2,0c0.5,0,0.9-0.1,1.3-0.2L122.1,124.5z M113.2,125.8c-0.9,0.3-1.7,0.7-2.5,1.1c-0.8,0.4-1.5,1-2.2,1.6c-0.6,0.6-1.1,1.3-1.5,2c-0.4,0.8-0.6,1.6-0.6,2.5 c0,0.6,0.2,1.2,0.6,1.7c0.4,0.5,0.9,0.7,1.5,0.7c0.9,0,1.7-0.2,2.4-0.6c0.7-0.4,1.2-0.9,1.7-1.5c0.4-0.6,0.8-1.2,1-1.9 s0.3-1.3,0.3-1.8c0-0.2,0-0.5,0-0.7c0-0.2,0-0.5-0.1-0.8c-0.1-0.3-0.1-0.6-0.2-1S113.3,126.3,113.2,125.8z M120.1,114.9 c0.3,0.2,0.7,0.4,1.1,0.5c0.4,0.1,0.7,0.2,1.1,0.2c0.2,0,0.5,0,0.7-0.1c0.2-0.1,0.5-0.2,0.7-0.4c0.2-0.1,0.4-0.3,0.5-0.5 c0.1-0.2,0.2-0.4,0.2-0.5c0-0.3-0.1-0.5-0.3-0.7c-0.2-0.2-0.5-0.3-0.8-0.3c-0.6,0-1.1,0.2-1.7,0.5S120.6,114.3,120.1,114.9z"/></g><g class="st8"><path class="st9" d="M134.3,131.5c-0.3,0.7-0.9,1.5-1.7,2.3c-0.8,0.8-1.8,1.5-2.8,2.1s-2.2,1.1-3.3,1.5c-1.2,0.4-2.2,0.6-3.2,0.6 c-0.8,0-1.5-0.3-2-0.8s-0.7-1.1-0.7-1.8c0-0.2,0-0.5,0.1-0.8c0.1-0.3,0.2-0.6,0.3-0.9l4-9h-1.6l0.9-2.1h1.6l5.1-11.4l6.3-0.4 l-5.3,11.8h1.7l-0.9,2.1h-1.7l-3.8,8.6c-0.1,0.2-0.2,0.4-0.2,0.6c0,0.2,0.1,0.3,0.4,0.3c0.4,0,1-0.1,1.5-0.4s1.2-0.6,1.7-1 c0.6-0.4,1.1-0.9,1.6-1.3c0.5-0.5,0.8-0.9,1-1.3L134.3,131.5z"/><path class="st9" d="M153.4,125.7c-1.4,1.4-3.5,2.3-6.4,2.6c-0.8,2.1-1.7,3.9-2.4,5.1c-0.8,1.3-1.6,2.3-2.5,2.9 c-0.9,0.7-1.8,1.1-2.7,1.3c-1,0.2-2,0.3-3.1,0.3c-1.8,0-3.1-0.3-3.8-0.8c-0.7-0.5-1.1-1.3-1.1-2.2c0-0.9,0.3-2,0.9-3.3l1.7-3.7 c0.5-1.1,1.1-2,1.6-2.8c0.6-0.8,1.1-1.4,1.7-1.8c0.6-0.5,1.2-0.8,1.9-1c0.7-0.2,1.3-0.3,2.1-0.3c0.4,0,0.7,0,1,0 c0.2,0,0.4,0,0.6,0.1c0.9-0.8,2-1.2,3.3-1.2c0.8,0,1.5,0.2,1.9,0.5c0.4,0.3,0.6,0.8,0.6,1.5c0,0.7-0.2,1.5-0.7,2.5 c0.2,0,0.5,0.1,0.6,0.1c0.2,0,0.4,0.1,0.5,0.1c0.5,0,1-0.1,1.6-0.3c0.6-0.2,1.1-0.5,1.8-1L153.4,125.7z M142.1,126.8 c-0.2-0.1-0.4-0.4-0.5-0.6c-0.1-0.3-0.2-0.6-0.2-0.9c0-0.2,0-0.4,0-0.5c-0.2,0.1-0.5,0.3-0.6,0.5s-0.4,0.6-0.6,1.2l-3.4,7.8 c-0.1,0.3-0.2,0.5-0.2,0.7c0,0.5,0.2,0.7,0.6,0.7c0.3,0,0.5-0.1,0.8-0.3c0.3-0.2,0.5-0.5,0.6-0.8L142.1,126.8z M145.8,125.1 c0.1-0.1,0.1-0.3,0.2-0.5c0.1-0.2,0.1-0.4,0.1-0.6c0-0.2,0-0.5-0.1-0.6s-0.2-0.2-0.5-0.2c-0.6,0-0.9,0.3-0.9,0.9 C144.6,124.8,145,125.1,145.8,125.1z"/><path class="st9" d="M167.2,131.5c-0.1,0.3-0.3,0.7-0.7,1.1c-0.3,0.4-0.7,0.9-1.2,1.3c-0.5,0.4-1.1,0.8-1.7,1.1 c-0.7,0.3-1.4,0.4-2.2,0.4c-0.4,0-0.8-0.1-1.1-0.3c-0.3-0.2-0.6-0.4-0.7-0.6c-1,1.3-2,2.2-3,2.7c-1,0.5-1.9,0.8-2.9,0.8 c-0.5,0-0.9-0.1-1.2-0.2c-0.3-0.1-0.5-0.2-0.6-0.4l-3.2,7.3h-6.1l9.8-21.9h4.4l-0.6,1.3c0.5-0.6,1.1-1.1,1.8-1.4 c0.7-0.3,1.6-0.5,2.8-0.5c1,0,1.7,0.2,2.3,0.7c0.5,0.5,0.8,1.1,0.8,1.9c0,0.8-0.2,1.6-0.5,2.6c-0.3,1-0.8,2.2-1.4,3.6 c-0.1,0.2-0.1,0.4-0.1,0.7c0,0.5,0.3,0.7,0.9,0.7c0.6,0,1.2-0.2,1.9-0.6c0.6-0.4,1.2-1,1.6-1.7L167.2,131.5z M158.9,126 c0.1-0.2,0.1-0.4,0.1-0.7c0-0.4-0.2-0.6-0.6-0.6c-0.6,0-1,0.3-1.2,0.8l-3.9,8.6c-0.1,0.1-0.1,0.3-0.1,0.4c0,0.1,0,0.2,0,0.3 c0,0.4,0.2,0.7,0.6,0.7c0.5,0,1.1-0.6,1.7-1.7L158.9,126z"/><path class="st9" d="M184.2,131.5c-0.1,0.3-0.3,0.7-0.7,1.1c-0.3,0.4-0.7,0.9-1.2,1.3c-0.5,0.4-1.1,0.8-1.7,1.1 c-0.7,0.3-1.4,0.4-2.2,0.4c-0.4,0-0.8-0.1-1.1-0.3c-0.3-0.2-0.6-0.4-0.7-0.6c-1,1.3-2,2.2-3,2.7c-1,0.5-1.9,0.8-2.9,0.8 c-0.5,0-0.9-0.1-1.2-0.2c-0.3-0.1-0.5-0.2-0.6-0.4l-3.2,7.3h-6.1l9.8-21.9h4.4l-0.6,1.3c0.5-0.6,1.1-1.1,1.8-1.4 c0.7-0.3,1.6-0.5,2.8-0.5c1,0,1.7,0.2,2.3,0.7c0.5,0.5,0.8,1.1,0.8,1.9c0,0.8-0.2,1.6-0.5,2.6c-0.3,1-0.8,2.2-1.4,3.6 c-0.1,0.2-0.1,0.4-0.1,0.7c0,0.5,0.3,0.7,0.9,0.7c0.6,0,1.2-0.2,1.9-0.6c0.6-0.4,1.2-1,1.6-1.7L184.2,131.5z M176,126 c0.1-0.2,0.1-0.4,0.1-0.7c0-0.4-0.2-0.6-0.6-0.6c-0.6,0-1,0.3-1.2,0.8l-3.9,8.6c-0.1,0.1-0.1,0.3-0.1,0.4c0,0.1,0,0.2,0,0.3 c0,0.4,0.2,0.7,0.6,0.7c0.5,0,1.1-0.6,1.7-1.7L176,126z"/><path class="st9" d="M199.9,131.5c-0.3,0.6-0.7,1.1-1.2,1.7c-0.5,0.6-1.2,1.1-2,1.7c-1.4,1-2.8,1.8-4.2,2.3c-1.4,0.5-3,0.8-4.8,0.8 c-1,0-1.9,0-2.6-0.1c-0.8-0.1-1.4-0.2-1.9-0.4c-0.5-0.2-0.9-0.5-1.2-0.9s-0.4-1-0.4-1.6c0-1,0.4-2.4,1.1-4.1l1.4-3.1 c0.4-1,0.9-1.9,1.4-2.6c0.5-0.7,1.1-1.3,1.8-1.7s1.5-0.8,2.4-1c0.9-0.2,2-0.3,3.3-0.3c1,0,1.8,0.1,2.4,0.2c0.6,0.1,1.1,0.3,1.5,0.5 c0.3,0.2,0.6,0.4,0.7,0.7c0.1,0.3,0.2,0.6,0.2,1c0,0.6-0.1,1.3-0.3,2.1c-0.2,0.8-0.6,1.6-1.1,2.3c-0.4,0.5-0.9,0.9-1.6,1.3 s-1.4,0.6-2.2,0.8c-0.8,0.2-1.6,0.3-2.5,0.4c-0.8,0.1-1.6,0.2-2.3,0.2c-0.3,0.6-0.5,1.2-0.7,1.6c-0.2,0.5-0.2,0.8-0.2,1.1 c0,0.7,0.5,1,1.4,1c1,0,2-0.1,3.1-0.4c1.1-0.3,2.1-0.6,3-1.1c0.9-0.5,1.8-1,2.6-1.7c0.8-0.6,1.4-1.3,1.8-2.1L199.9,131.5z M188.7,129.6c0.5,0,1.1-0.2,1.5-0.4c0.5-0.2,0.9-0.6,1.2-1c0.3-0.4,0.6-0.9,0.8-1.4c0.2-0.5,0.3-1.1,0.3-1.7 c0-0.3-0.2-0.5-0.7-0.5c-0.3,0-0.6,0.1-0.8,0.3c-0.2,0.2-0.5,0.6-0.8,1.2L188.7,129.6z"/></g></svg>